<?xml version="1.0" encoding="UTF-8" standalone="no"?>
<!DOCTYPE svg PUBLIC "-//W3C//DTD SVG 1.1//EN" "http://www.w3.org/Graphics/SVG/1.1/DTD/svg11.dtd">
<svg width="100%" height="100%" viewBox="0 0 1024 1024" version="1.1" xmlns="http://www.w3.org/2000/svg" xmlns:xlink="http://www.w3.org/1999/xlink" xml:space="preserve" xmlns:serif="http://www.serif.com/" style="fill-rule:evenodd;clip-rule:evenodd;stroke-linejoin:round;stroke-miterlimit:2;">
    <g transform="matrix(1.024,0,0,1.024,-1.023996,-1.023969)">
        <path d="M499.493,754.052C390.984,755.175 331.528,707.048 295.295,666.68C208.703,570.203 211.636,396.109 337.738,305.822C392.17,266.85 449.364,260.98 454.47,260.204C457.017,259.817 457.178,261.266 457.179,262.508C457.188,271.145 457.291,367.648 457.148,370.477C456.907,375.25 449.069,371.199 418.781,389.957C351.272,431.766 325.171,540.449 403.092,609.953C468.315,668.131 583.493,652.982 622.953,553.677C624.381,550.083 625.605,550.791 651.5,550.783C745.419,550.755 745.792,550.91 746.13,551.661C746.473,552.422 741.693,582.084 725.018,615.259C720.62,624.009 695.234,674.516 645.217,708.079C583.415,749.549 530.271,752.705 499.493,754.052Z" style="fill:rgb(41,39,40);"/>
        <path d="M745.5,518.831C632.554,518.832 632.345,518.906 631.757,518.226C630.299,516.54 632.383,369.327 630.645,368.343C627.892,366.785 491.282,368.888 489.78,367.224C488.832,366.174 489.2,259.05 489.587,258.552C490.4,257.508 490.767,257.745 723.5,257.716C748.684,257.713 750.567,257.032 750.579,260.499C750.646,280.98 751.272,471.858 750.585,516.505C750.534,519.791 745.592,518.827 745.5,518.831Z" style="fill:rgb(240,91,62);"/>
        <path d="M1000.999,1.5C989.82,0.699 2.208,0.758 1.483,1.483C0.76,2.206 0.696,988.058 1.5,1000.999C1.388,1000.512 0.112,1001.486 0,1000.999C-0.487,998.888 0,996.666 0,994.5L0,-0C1.611,-1.116 1.844,0 24.5,0L1000.999,0C1001.473,0.158 1000.525,1.342 1000.999,1.5Z" style="fill:rgb(63,63,63);fill-opacity:0.25;"/>
    </g>
</svg>
